<?xml version="1.0" encoding="UTF-8" standalone="no"?>
<!DOCTYPE svg PUBLIC "-//W3C//DTD SVG 1.1//EN"
 "http://www.w3.org/Graphics/SVG/1.1/DTD/svg11.dtd">
<!-- Generated by graphviz version 2.43.0 (0)
 -->
<!-- Title: MLOps Pipeline Pages: 1 -->
<svg width="4179pt" height="4017pt"
 viewBox="0.00 0.00 1003.00 964.00" xmlns="http://www.w3.org/2000/svg" xmlns:xlink="http://www.w3.org/1999/xlink">
<g id="graph0" class="graph" transform="scale(4.17 4.17) rotate(0) translate(36 928)">
<title>MLOps Pipeline</title>
<text text-anchor="middle" x="465.5" y="-9.2" font-family="Arial" font-size="16.00" fill="#2d3436">MLOps Pipeline</text>
<g id="clust1" class="cluster">
<title>cluster_Configuration &amp; Launch</title>
<path fill="#e5f5fd" stroke="#aeb6be" d="M20,-305C20,-305 287,-305 287,-305 293,-305 299,-311 299,-317 299,-317 299,-496 299,-496 299,-502 293,-508 287,-508 287,-508 20,-508 20,-508 14,-508 8,-502 8,-496 8,-496 8,-317 8,-317 8,-311 14,-305 20,-305"/>
<text text-anchor="middle" x="87" y="-494.4" font-family="Sans-Serif" font-size="12.00" fill="#2d3436">Configuration &amp; Launch</text>
</g>
<g id="clust2" class="cluster">
<title>cluster_Execution Environment (Docker / Ray)</title>
<path fill="#e5f5fd" stroke="#aeb6be" d="M453,-319C453,-319 724.5,-319 724.5,-319 730.5,-319 736.5,-325 736.5,-331 736.5,-331 736.5,-872 736.5,-872 736.5,-878 730.5,-884 724.5,-884 724.5,-884 453,-884 453,-884 447,-884 441,-878 441,-872 441,-872 441,-331 441,-331 441,-325 447,-319 453,-319"/>
<text text-anchor="middle" x="563" y="-870.4" font-family="Sans-Serif" font-size="12.00" fill="#2d3436">Execution Environment (Docker / Ray)</text>
</g>
<g id="clust3" class="cluster">
<title>cluster_Tracking &amp; Artifacts</title>
<path fill="#e5f5fd" stroke="#aeb6be" d="M810,-34C810,-34 919,-34 919,-34 925,-34 931,-40 931,-46 931,-46 931,-673 931,-673 931,-679 925,-685 919,-685 919,-685 810,-685 810,-685 804,-685 798,-679 798,-673 798,-673 798,-46 798,-46 798,-40 804,-34 810,-34"/>
<text text-anchor="middle" x="864.5" y="-671.4" font-family="Sans-Serif" font-size="12.00" fill="#2d3436">Tracking &amp; Artifacts</text>
</g>
<!-- f4f74ec3e1cf498ca0ac20adfbadf6e0 -->
<g id="node1" class="node">
<title>f4f74ec3e1cf498ca0ac20adfbadf6e0</title>
<image xlink:href="/home/radioactive/.local/lib/python3.10/site-packages/resources/generic/network/switch.png" width="101px" height="101px" preserveAspectRatio="xMinYMin meet" x="16" y="-446.5"/>
<text text-anchor="middle" x="66.5" y="-330.6" font-family="Arial" font-size="13.00" fill="#2d3436">Hydra Configs</text>
<text text-anchor="middle" x="66.5" y="-316.6" font-family="Arial" font-size="13.00" fill="#2d3436">(YAML/Dataclasses)</text>
</g>
<!-- e3b86954ff9f44c0809fd74bfb44b9a6 -->
<g id="node2" class="node">
<title>e3b86954ff9f44c0809fd74bfb44b9a6</title>
<image xlink:href="/home/radioactive/.local/lib/python3.10/site-packages/resources/programming/language/python.png" width="101px" height="101px" preserveAspectRatio="xMinYMin meet" x="190" y="-446.5"/>
<text text-anchor="middle" x="240.5" y="-330.6" font-family="Arial" font-size="13.00" fill="#2d3436">Train CLI</text>
<text text-anchor="middle" x="240.5" y="-316.6" font-family="Arial" font-size="13.00" fill="#2d3436">(trained_ppo.py)</text>
</g>
<!-- f4f74ec3e1cf498ca0ac20adfbadf6e0&#45;&gt;e3b86954ff9f44c0809fd74bfb44b9a6 -->
<g id="edge1" class="edge">
<title>f4f74ec3e1cf498ca0ac20adfbadf6e0&#45;&gt;e3b86954ff9f44c0809fd74bfb44b9a6</title>
<path fill="none" stroke="#555555" d="M117.25,-396C136.77,-396 159.34,-396 179.74,-396"/>
<polygon fill="#555555" stroke="#555555" points="179.86,-399.5 189.86,-396 179.86,-392.5 179.86,-399.5"/>
</g>
<!-- 899173f4ddcd4d1cbd2fef7ec2dbda41 -->
<g id="node3" class="node">
<title>899173f4ddcd4d1cbd2fef7ec2dbda41</title>
<image xlink:href="/home/radioactive/.local/lib/python3.10/site-packages/resources/onprem/container/docker.png" width="101px" height="101px" preserveAspectRatio="xMinYMin meet" x="449" y="-446.5"/>
<text text-anchor="middle" x="499.5" y="-331.1" font-family="Arial" font-size="13.00" fill="#2d3436">Trainer Container</text>
</g>
<!-- e3b86954ff9f44c0809fd74bfb44b9a6&#45;&gt;899173f4ddcd4d1cbd2fef7ec2dbda41 -->
<g id="edge2" class="edge">
<title>e3b86954ff9f44c0809fd74bfb44b9a6&#45;&gt;899173f4ddcd4d1cbd2fef7ec2dbda41</title>
<path fill="none" stroke="#2b6cb0" stroke-width="2" d="M291.05,-396C333.14,-396 393.67,-396 438.49,-396"/>
<polygon fill="#2b6cb0" stroke="#2b6cb0" stroke-width="2" points="438.66,-399.5 448.66,-396 438.66,-392.5 438.66,-399.5"/>
<text text-anchor="middle" x="370" y="-399.6" font-family="Sans-Serif" font-size="13.00" fill="#2d3436">Submits task</text>
</g>
<!-- 3d97668d92e44e388bb9e2d4f804fd1f -->
<g id="node4" class="node">
<title>3d97668d92e44e388bb9e2d4f804fd1f</title>
<image xlink:href="/home/radioactive/.local/lib/python3.10/site-packages/resources/onprem/compute/server.png" width="101px" height="101px" preserveAspectRatio="xMinYMin meet" x="627.5" y="-836.5"/>
<text text-anchor="middle" x="678" y="-721.1" font-family="Arial" font-size="13.00" fill="#2d3436">VecEnv Worker 1</text>
</g>
<!-- 899173f4ddcd4d1cbd2fef7ec2dbda41&#45;&gt;3d97668d92e44e388bb9e2d4f804fd1f -->
<g id="edge3" class="edge">
<title>899173f4ddcd4d1cbd2fef7ec2dbda41&#45;&gt;3d97668d92e44e388bb9e2d4f804fd1f</title>
<path fill="none" stroke="#555555" d="M526.72,-464.75C550.19,-524.75 586.46,-613.73 623,-689 626.1,-695.38 629.42,-701.92 632.84,-708.46"/>
<polygon fill="#555555" stroke="#555555" points="629.77,-710.15 637.54,-717.35 635.96,-706.88 629.77,-710.15"/>
</g>
<!-- bed7bc06f8d340b39d3e73c20aa6b0bd -->
<g id="node5" class="node">
<title>bed7bc06f8d340b39d3e73c20aa6b0bd</title>
<image xlink:href="/home/radioactive/.local/lib/python3.10/site-packages/resources/onprem/compute/server.png" width="101px" height="101px" preserveAspectRatio="xMinYMin meet" x="627.5" y="-641.5"/>
<text text-anchor="middle" x="678" y="-526.1" font-family="Arial" font-size="13.00" fill="#2d3436">VecEnv Worker 2</text>
</g>
<!-- 899173f4ddcd4d1cbd2fef7ec2dbda41&#45;&gt;bed7bc06f8d340b39d3e73c20aa6b0bd -->
<g id="edge4" class="edge">
<title>899173f4ddcd4d1cbd2fef7ec2dbda41&#45;&gt;bed7bc06f8d340b39d3e73c20aa6b0bd</title>
<path fill="none" stroke="#555555" d="M550.13,-450.84C572.03,-475.03 597.89,-503.59 620.52,-528.6"/>
<polygon fill="#555555" stroke="#555555" points="618.13,-531.17 627.43,-536.24 623.32,-526.47 618.13,-531.17"/>
</g>
<!-- 2c164caf31ce451d8db0da1fe54145d3 -->
<g id="node6" class="node">
<title>2c164caf31ce451d8db0da1fe54145d3</title>
<image xlink:href="/home/radioactive/.local/lib/python3.10/site-packages/resources/onprem/compute/server.png" width="101px" height="101px" preserveAspectRatio="xMinYMin meet" x="627.5" y="-446.5"/>
<text text-anchor="middle" x="678" y="-331.1" font-family="Arial" font-size="13.00" fill="#2d3436">VecEnv Worker N</text>
</g>
<!-- 899173f4ddcd4d1cbd2fef7ec2dbda41&#45;&gt;2c164caf31ce451d8db0da1fe54145d3 -->
<g id="edge5" class="edge">
<title>899173f4ddcd4d1cbd2fef7ec2dbda41&#45;&gt;2c164caf31ce451d8db0da1fe54145d3</title>
<path fill="none" stroke="#555555" d="M550.13,-396C571,-396 595.44,-396 617.28,-396"/>
<polygon fill="#555555" stroke="#555555" points="617.43,-399.5 627.43,-396 617.43,-392.5 617.43,-399.5"/>
</g>
<!-- 4fb4f2fb04854718b752e12d84b60515 -->
<g id="node8" class="node">
<title>4fb4f2fb04854718b752e12d84b60515</title>
<image xlink:href="/home/radioactive/.local/lib/python3.10/site-packages/resources/onprem/database/postgresql.png" width="101px" height="101px" preserveAspectRatio="xMinYMin meet" x="814" y="-399.5"/>
<text text-anchor="middle" x="864.5" y="-283.6" font-family="Arial" font-size="13.00" fill="#2d3436">MLflow Registry</text>
<text text-anchor="middle" x="864.5" y="-269.6" font-family="Arial" font-size="13.00" fill="#2d3436">(Models &amp; Meta)</text>
</g>
<!-- 899173f4ddcd4d1cbd2fef7ec2dbda41&#45;&gt;4fb4f2fb04854718b752e12d84b60515 -->
<g id="edge9" class="edge">
<title>899173f4ddcd4d1cbd2fef7ec2dbda41&#45;&gt;4fb4f2fb04854718b752e12d84b60515</title>
<path fill="none" stroke="#2f855a" stroke-width="2" d="M550.21,-335.55C570.45,-315.49 595.55,-295.59 623,-285 670.07,-266.85 687.42,-273.33 736.5,-285 760.04,-290.6 784.17,-301.29 804.98,-312.35"/>
<polygon fill="#2f855a" stroke="#2f855a" stroke-width="2" points="803.54,-315.55 814,-317.27 806.9,-309.41 803.54,-315.55"/>
<text text-anchor="middle" x="678" y="-288.6" font-family="Sans-Serif" font-size="13.00" fill="#2d3436">Logs Final Model</text>
</g>
<!-- 11de7d627e3044b1b309aa2efb9355f4 -->
<g id="node9" class="node">
<title>11de7d627e3044b1b309aa2efb9355f4</title>
<image xlink:href="/home/radioactive/.local/lib/python3.10/site-packages/resources/aws/storage/simple-storage-service-s3.png" width="101px" height="101px" preserveAspectRatio="xMinYMin meet" x="814" y="-175.5"/>
<text text-anchor="middle" x="864.5" y="-59.6" font-family="Arial" font-size="13.00" fill="#2d3436">Weights &amp; Biases</text>
<text text-anchor="middle" x="864.5" y="-45.6" font-family="Arial" font-size="13.00" fill="#2d3436">(Cloud Dashboards)</text>
</g>
<!-- 899173f4ddcd4d1cbd2fef7ec2dbda41&#45;&gt;11de7d627e3044b1b309aa2efb9355f4 -->
<g id="edge10" class="edge">
<title>899173f4ddcd4d1cbd2fef7ec2dbda41&#45;&gt;11de7d627e3044b1b309aa2efb9355f4</title>
<path fill="none" stroke="#2b6cb0" stroke-width="1.5" d="M550.13,-334.26C561.87,-319.73 574.35,-304.3 586,-290 602.35,-269.92 602.75,-261.13 623,-245 678.54,-200.75 753.05,-166.7 804.33,-146.36"/>
<polygon fill="#2b6cb0" stroke="#2b6cb0" stroke-width="1.5" points="805.91,-149.5 813.95,-142.6 803.36,-142.99 805.91,-149.5"/>
<text text-anchor="middle" x="678" y="-248.6" font-family="Sans-Serif" font-size="13.00" fill="#2d3436">Streams Metrics</text>
</g>
<!-- e9ddcd8c2d1448c883f0f5fc7e59d911 -->
<g id="node7" class="node">
<title>e9ddcd8c2d1448c883f0f5fc7e59d911</title>
<image xlink:href="/home/radioactive/.local/lib/python3.10/site-packages/resources/generic/network/switch.png" width="101px" height="101px" preserveAspectRatio="xMinYMin meet" x="814" y="-623.5"/>
<text text-anchor="middle" x="864.5" y="-507.6" font-family="Arial" font-size="13.00" fill="#2d3436">TensorBoard</text>
<text text-anchor="middle" x="864.5" y="-493.6" font-family="Arial" font-size="13.00" fill="#2d3436">(Live Metrics)</text>
</g>
<!-- 3d97668d92e44e388bb9e2d4f804fd1f&#45;&gt;e9ddcd8c2d1448c883f0f5fc7e59d911 -->
<g id="edge6" class="edge">
<title>3d97668d92e44e388bb9e2d4f804fd1f&#45;&gt;e9ddcd8c2d1448c883f0f5fc7e59d911</title>
<path fill="none" stroke="#a0aec0" stroke-dasharray="5,2" d="M728.69,-728.64C752.89,-700.7 782.09,-666.98 807.12,-638.09"/>
<polygon fill="#a0aec0" stroke="#a0aec0" points="809.82,-640.31 813.73,-630.46 804.53,-635.73 809.82,-640.31"/>
</g>
<!-- bed7bc06f8d340b39d3e73c20aa6b0bd&#45;&gt;e9ddcd8c2d1448c883f0f5fc7e59d911 -->
<g id="edge7" class="edge">
<title>bed7bc06f8d340b39d3e73c20aa6b0bd&#45;&gt;e9ddcd8c2d1448c883f0f5fc7e59d911</title>
<path fill="none" stroke="#a0aec0" stroke-dasharray="5,2" d="M728.93,-586.13C751.99,-583.88 779.56,-581.19 803.73,-578.83"/>
<polygon fill="#a0aec0" stroke="#a0aec0" points="804.24,-582.3 813.85,-577.84 803.56,-575.33 804.24,-582.3"/>
</g>
<!-- 2c164caf31ce451d8db0da1fe54145d3&#45;&gt;e9ddcd8c2d1448c883f0f5fc7e59d911 -->
<g id="edge8" class="edge">
<title>2c164caf31ce451d8db0da1fe54145d3&#45;&gt;e9ddcd8c2d1448c883f0f5fc7e59d911</title>
<path fill="none" stroke="#a0aec0" stroke-dasharray="5,2" d="M728.93,-443.9C752.92,-466.91 781.79,-494.61 806.62,-518.44"/>
<polygon fill="#a0aec0" stroke="#a0aec0" points="804.21,-520.97 813.85,-525.37 809.06,-515.92 804.21,-520.97"/>
</g>
</g>
</svg>
