<?xml version="1.0" encoding="UTF-8" standalone="no"?>
<!DOCTYPE svg PUBLIC "-//W3C//DTD SVG 1.1//EN"
 "http://www.w3.org/Graphics/SVG/1.1/DTD/svg11.dtd">
<!-- Generated by graphviz version 2.43.0 (0)
 -->
<!-- Title: System Logic Architecture Pages: 1 -->
<svg width="2058pt" height="5054pt"
 viewBox="0.00 0.00 494.00 1213.00" xmlns="http://www.w3.org/2000/svg" xmlns:xlink="http://www.w3.org/1999/xlink">
<g id="graph0" class="graph" transform="scale(4.17 4.17) rotate(0) translate(36 1177)">
<title>System Logic Architecture</title>
<text text-anchor="middle" x="211" y="-9.2" font-family="Arial" font-size="16.00" fill="#2d3436">System Logic Architecture</text>
<g id="clust1" class="cluster">
<title>cluster_RL Agent (Recurrent PPO)</title>
<path fill="#e5f5fd" stroke="#aeb6be" d="M135,-539C135,-539 281,-539 281,-539 287,-539 293,-545 293,-551 293,-551 293,-1121 293,-1121 293,-1127 287,-1133 281,-1133 281,-1133 135,-1133 135,-1133 129,-1133 123,-1127 123,-1121 123,-1121 123,-551 123,-551 123,-545 129,-539 135,-539"/>
<text text-anchor="middle" x="208" y="-1119.4" font-family="Sans-Serif" font-size="12.00" fill="#2d3436">RL Agent (Recurrent PPO)</text>
</g>
<g id="clust2" class="cluster">
<title>cluster_Threat&#45;Aware Swarm Environment</title>
<path fill="#e5f5fd" stroke="#aeb6be" d="M20,-34C20,-34 273,-34 273,-34 279,-34 285,-40 285,-46 285,-46 285,-477 285,-477 285,-483 279,-489 273,-489 273,-489 20,-489 20,-489 14,-489 8,-483 8,-477 8,-477 8,-46 8,-46 8,-40 14,-34 20,-34"/>
<text text-anchor="middle" x="118.5" y="-475.4" font-family="Sans-Serif" font-size="12.00" fill="#2d3436">Threat&#45;Aware Swarm Environment</text>
</g>
<!-- 3ec10f49c279413c93a06ae34a8dffe8 -->
<g id="node1" class="node">
<title>3ec10f49c279413c93a06ae34a8dffe8</title>
<image xlink:href="/home/radioactive/.local/lib/python3.10/site-packages/resources/generic/compute/rack.png" width="101px" height="101px" preserveAspectRatio="xMinYMin meet" x="182.5" y="-1086"/>
<text text-anchor="middle" x="233" y="-970.6" font-family="Arial" font-size="13.00" fill="#2d3436">SmallSwarmCNN</text>
</g>
<!-- 85167c5d7021462fbe3318b10f70ed76 -->
<g id="node2" class="node">
<title>85167c5d7021462fbe3318b10f70ed76</title>
<image xlink:href="/home/radioactive/.local/lib/python3.10/site-packages/resources/generic/compute/rack.png" width="101px" height="101px" preserveAspectRatio="xMinYMin meet" x="152.5" y="-876"/>
<text text-anchor="middle" x="203" y="-760.6" font-family="Arial" font-size="13.00" fill="#2d3436">LSTM Memory</text>
</g>
<!-- 3ec10f49c279413c93a06ae34a8dffe8&#45;&gt;85167c5d7021462fbe3318b10f70ed76 -->
<g id="edge1" class="edge">
<title>3ec10f49c279413c93a06ae34a8dffe8&#45;&gt;85167c5d7021462fbe3318b10f70ed76</title>
<path fill="none" stroke="#555555" d="M223.26,-966.97C220.36,-946.89 217.17,-924.73 214.19,-904.06"/>
<polygon fill="#555555" stroke="#555555" points="217.63,-903.45 212.74,-894.05 210.71,-904.45 217.63,-903.45"/>
</g>
<!-- 1f13bfbc7c144e62b8a8e18f03fd15fc -->
<g id="node3" class="node">
<title>1f13bfbc7c144e62b8a8e18f03fd15fc</title>
<image xlink:href="/home/radioactive/.local/lib/python3.10/site-packages/resources/programming/language/python.png" width="101px" height="101px" preserveAspectRatio="xMinYMin meet" x="133.5" y="-666"/>
<text text-anchor="middle" x="184" y="-550.6" font-family="Arial" font-size="13.00" fill="#2d3436">Action Head</text>
</g>
<!-- 85167c5d7021462fbe3318b10f70ed76&#45;&gt;1f13bfbc7c144e62b8a8e18f03fd15fc -->
<g id="edge2" class="edge">
<title>85167c5d7021462fbe3318b10f70ed76&#45;&gt;1f13bfbc7c144e62b8a8e18f03fd15fc</title>
<path fill="none" stroke="#555555" d="M196.83,-756.97C195,-736.89 192.97,-714.73 191.08,-694.06"/>
<polygon fill="#555555" stroke="#555555" points="194.57,-693.69 190.17,-684.05 187.59,-694.33 194.57,-693.69"/>
</g>
<!-- 3e01a93873d847adb351cfe576336ec4 -->
<g id="node4" class="node">
<title>3e01a93873d847adb351cfe576336ec4</title>
<image xlink:href="/home/radioactive/.local/lib/python3.10/site-packages/resources/onprem/compute/server.png" width="101px" height="101px" preserveAspectRatio="xMinYMin meet" x="16.5" y="-427.5"/>
<text text-anchor="middle" x="67" y="-311.6" font-family="Arial" font-size="13.00" fill="#2d3436">Core Physics</text>
<text text-anchor="middle" x="67" y="-297.6" font-family="Arial" font-size="13.00" fill="#2d3436">(Kinematics + Sliding)</text>
</g>
<!-- 1f13bfbc7c144e62b8a8e18f03fd15fc&#45;&gt;3e01a93873d847adb351cfe576336ec4 -->
<g id="edge6" class="edge">
<title>1f13bfbc7c144e62b8a8e18f03fd15fc&#45;&gt;3e01a93873d847adb351cfe576336ec4</title>
<path fill="none" stroke="#e53e3e" stroke-width="2.5" d="M150.47,-546.73C138.51,-522.55 124.84,-494.91 112.07,-469.1"/>
<polygon fill="#e53e3e" stroke="#e53e3e" stroke-width="2.5" points="115.16,-467.46 107.59,-460.05 108.89,-470.57 115.16,-467.46"/>
<text text-anchor="middle" x="207.5" y="-500.6" font-family="Sans-Serif" font-size="13.00" fill="#2d3436">Action (Velocity/Accel)</text>
</g>
<!-- 5e080bfe09d5424a99118eda8f094c8f -->
<g id="node5" class="node">
<title>5e080bfe09d5424a99118eda8f094c8f</title>
<image xlink:href="/home/radioactive/.local/lib/python3.10/site-packages/resources/onprem/compute/server.png" width="101px" height="101px" preserveAspectRatio="xMinYMin meet" x="16.5" y="-175.5"/>
<text text-anchor="middle" x="67" y="-59.6" font-family="Arial" font-size="13.00" fill="#2d3436">Threat Engine</text>
<text text-anchor="middle" x="67" y="-45.6" font-family="Arial" font-size="13.00" fill="#2d3436">(Dynamic/Static)</text>
</g>
<!-- 3e01a93873d847adb351cfe576336ec4&#45;&gt;5e080bfe09d5424a99118eda8f094c8f -->
<g id="edge3" class="edge">
<title>3e01a93873d847adb351cfe576336ec4&#45;&gt;5e080bfe09d5424a99118eda8f094c8f</title>
<path fill="none" stroke="#e53e3e" stroke-dasharray="1,5" d="M67,-293.79C67,-266.33 67,-235.73 67,-208.26"/>
</g>
<!-- 83770219ba0442cb821a09c6519c51de -->
<g id="node6" class="node">
<title>83770219ba0442cb821a09c6519c51de</title>
<image xlink:href="/home/radioactive/.local/lib/python3.10/site-packages/resources/generic/network/switch.png" width="101px" height="101px" preserveAspectRatio="xMinYMin meet" x="175.5" y="-175.5"/>
<text text-anchor="middle" x="226" y="-59.6" font-family="Arial" font-size="13.00" fill="#2d3436">Observation Builder</text>
<text text-anchor="middle" x="226" y="-45.6" font-family="Arial" font-size="13.00" fill="#2d3436">(Dict: Grid 41x41 + Vec)</text>
</g>
<!-- 3e01a93873d847adb351cfe576336ec4&#45;&gt;83770219ba0442cb821a09c6519c51de -->
<g id="edge4" class="edge">
<title>3e01a93873d847adb351cfe576336ec4&#45;&gt;83770219ba0442cb821a09c6519c51de</title>
<path fill="none" stroke="#555555" d="M117.53,-296.55C134.18,-270.37 152.81,-241.08 169.86,-214.28"/>
<polygon fill="#555555" stroke="#555555" points="172.92,-215.98 175.33,-205.67 167.01,-212.23 172.92,-215.98"/>
</g>
<!-- 83770219ba0442cb821a09c6519c51de&#45;&gt;3ec10f49c279413c93a06ae34a8dffe8 -->
<g id="edge7" class="edge">
<title>83770219ba0442cb821a09c6519c51de&#45;&gt;3ec10f49c279413c93a06ae34a8dffe8</title>
<path fill="none" stroke="#2b6cb0" stroke-width="2.5" d="M276.74,-172.51C296.21,-192.78 317.07,-217.86 331,-244 359.49,-297.46 365,-315.42 365,-376 365,-826.5 365,-826.5 365,-826.5 365,-885.84 326.22,-941.96 290.71,-980.92"/>
<polygon fill="#2b6cb0" stroke="#2b6cb0" stroke-width="2.5" points="287.92,-978.77 283.66,-988.47 293.04,-983.55 287.92,-978.77"/>
<text text-anchor="middle" x="393.5" y="-612.1" font-family="Sans-Serif" font-size="13.00" fill="#2d3436">Dict Obs</text>
</g>
<!-- e044870de8374989aa5bf8d4822b476d -->
<g id="node7" class="node">
<title>e044870de8374989aa5bf8d4822b476d</title>
<image xlink:href="/home/radioactive/.local/lib/python3.10/site-packages/resources/generic/network/switch.png" width="101px" height="101px" preserveAspectRatio="xMinYMin meet" x="175.5" y="-427.5"/>
<text text-anchor="middle" x="226" y="-311.6" font-family="Arial" font-size="13.00" fill="#2d3436">Oracle Manager</text>
<text text-anchor="middle" x="226" y="-297.6" font-family="Arial" font-size="13.00" fill="#2d3436">(Global A* / Penalty Grid)</text>
</g>
<!-- e044870de8374989aa5bf8d4822b476d&#45;&gt;83770219ba0442cb821a09c6519c51de -->
<g id="edge5" class="edge">
<title>e044870de8374989aa5bf8d4822b476d&#45;&gt;83770219ba0442cb821a09c6519c51de</title>
<path fill="none" stroke="#555555" d="M215.83,-293.68C214.74,-277.24 214.25,-260.08 215,-244 215.39,-235.65 215.93,-226.99 216.57,-218.31"/>
<polygon fill="#555555" stroke="#555555" points="220.07,-218.38 217.35,-208.14 213.09,-217.84 220.07,-218.38"/>
<text text-anchor="middle" x="268" y="-247.6" font-family="Sans-Serif" font-size="13.00" fill="#2d3436">Path Ratio (Tax)</text>
</g>
</g>
</svg>
